<svg width="25" height="25" viewBox="0 0 25 25" fill="none" xmlns="http://www.w3.org/2000/svg">
<path d="M11.8653 15.9375C12.3809 15.4219 12.5684 14.7188 12.3809 14.0156C12.2403 13.4062 12.1934 13.6406 12.3809 13.0312C12.5684 12.3281 12.3809 11.625 11.8653 11.1094C11.4434 10.6406 11.4434 10.7344 11.3028 10.0781C11.1153 9.42188 10.5997 8.85938 9.94341 8.71875C9.28716 8.53125 9.38091 8.57812 8.91216 8.10938C8.44341 7.59375 7.69341 7.40625 7.03716 7.59375C6.38091 7.78125 6.52154 7.78125 5.86529 7.59375C5.20904 7.40625 4.45904 7.59375 3.99029 8.10938C3.52154 8.57812 3.61529 8.53125 2.95904 8.71875C2.30279 8.85938 1.78716 9.42188 1.59966 10.0781C1.45904 10.7344 1.45904 10.6406 1.03716 11.1094C0.521538 11.625 0.334038 12.3281 0.521538 13.0312C0.709038 13.6406 0.662163 13.4062 0.521538 14.0156C0.334038 14.7188 0.521538 15.4219 1.03716 15.9375C1.50591 16.4062 1.41216 16.3125 1.59966 16.9688C1.78716 17.625 2.30279 18.1875 2.95904 18.3281C3.24029 18.4219 3.33404 18.4688 3.42779 18.5156V23.25C3.42779 23.5312 3.56841 23.7656 3.80279 23.9062C4.03716 24.0469 4.31841 24.0469 4.55279 23.9531L6.42779 22.9688L8.34966 23.9531C8.49029 24 8.58404 24 8.72466 24C8.81841 24 8.95904 24 9.09966 23.9062C9.33404 23.7656 9.47466 23.5312 9.47466 23.25V18.5156C9.56841 18.4688 9.66216 18.4219 9.94341 18.3281C10.5997 18.1875 11.1153 17.625 11.3028 16.9688C11.4903 16.3125 11.3965 16.4062 11.8653 15.9375ZM7.97466 22.0781L6.80279 21.4688C6.56841 21.375 6.33404 21.375 6.09966 21.4688L4.92779 22.0781V19.4531C5.25591 19.5469 5.58404 19.5469 5.86529 19.4531C6.52154 19.2656 6.38091 19.2656 7.03716 19.4531C7.31841 19.5469 7.64654 19.5469 7.97466 19.4531V22.0781ZM10.8809 14.2031C10.9747 14.5781 11.0215 14.6719 10.6934 15C10.1309 15.5625 10.084 15.6562 9.84966 16.5469C9.75591 16.8281 9.56841 16.875 9.38091 16.9219C8.63091 17.1562 8.49029 17.2031 7.97466 17.7656C7.69341 18.0469 7.64654 18.0469 7.27154 17.9531C6.52154 17.7656 6.38091 17.7656 5.63091 17.9531C5.25591 18.0469 5.20904 18.0469 4.92779 17.7656C4.41216 17.2031 4.27154 17.1562 3.52154 16.9219C3.33404 16.875 3.14654 16.8281 3.05279 16.5469C2.81841 15.6562 2.77154 15.5625 2.20904 15C1.88091 14.6719 1.92779 14.5781 2.02154 14.2031C2.20904 13.5938 2.20904 13.4531 2.02154 12.8438C1.92779 12.4688 1.88091 12.375 2.20904 12.0469C2.72466 11.5312 2.81841 11.3906 3.00591 10.6406C3.09966 10.2656 3.14654 10.2188 3.52154 10.0781C4.27154 9.89062 4.41216 9.84375 4.92779 9.28125C5.20904 9 5.25591 8.95312 5.63091 9.09375C6.38091 9.28125 6.52154 9.28125 7.27154 9.09375C7.64654 8.95312 7.69341 9 7.97466 9.28125C8.49029 9.84375 8.63091 9.89062 9.38091 10.0781C9.75591 10.2188 9.80279 10.2656 9.89654 10.6406C10.084 11.3906 10.1778 11.5312 10.6934 12.0469C11.0215 12.375 10.9747 12.4688 10.8809 12.8438C10.6934 13.4531 10.6934 13.5938 10.8809 14.2031ZM23.584 5.90625L18.5684 0.890625C18.0059 0.328125 17.2559 0 16.459 0H9.42779C7.78716 0 6.42779 1.35938 6.42779 3V5.25C6.42779 5.67188 6.80279 6 7.17779 6C7.59966 6 7.92779 5.67188 7.92779 5.25V3C7.92779 2.20312 8.63091 1.5 9.42779 1.5H15.4278V6.75C15.4278 8.01562 16.459 9 17.6778 9H22.9278V21C22.9278 21.8438 22.2715 22.5 21.4278 22.5H11.6778C11.3028 22.5 10.9278 22.875 10.9278 23.25C10.9278 23.6719 11.3028 24 11.6778 24H21.4278C23.1153 24 24.4278 22.6875 24.4278 21V8.01562C24.4278 7.21875 24.1465 6.46875 23.584 5.90625ZM17.6778 7.5C17.3028 7.5 16.9278 7.17188 16.9278 6.75V1.64062C17.1622 1.6875 17.3497 1.78125 17.5372 1.96875L22.5059 6.9375C22.6934 7.125 22.7872 7.3125 22.834 7.5H17.6778Z" fill="#282828"/>
</svg>
