<svg width="30" height="40" viewBox="0 0 30 40" fill="none" xmlns="http://www.w3.org/2000/svg">
<path d="M28.1227 9.86752L19.9315 1.67631C19.0128 0.757672 17.788 0.221798 16.4866 0.221798H5.0801C2.32418 0.221798 0.180687 2.44185 0.180687 5.12121V34.5177C0.180687 37.2736 2.32418 39.4171 5.0801 39.4171H24.6778C27.3571 39.4171 29.5772 37.2736 29.5772 34.5177V13.3124C29.5772 12.011 29.0413 10.7862 28.1227 9.86752ZM26.3619 11.5517C26.6681 11.8579 26.8213 12.1641 26.8978 12.4703H18.5535C17.8645 12.4703 17.3286 11.9345 17.3286 11.2455V2.90117C17.6349 2.97772 17.9411 3.13083 18.2473 3.43704L26.3619 11.5517ZM27.1275 34.5177C27.1275 35.8957 25.9792 36.9674 24.6778 36.9674H5.0801C3.70214 36.9674 2.63039 35.8957 2.63039 34.5177V5.12121C2.63039 3.81981 3.70214 2.67151 5.0801 2.67151H14.8789V11.2455C14.8789 13.3124 16.4866 14.92 18.5535 14.92H27.1275V34.5177Z" fill="#282828"/>
</svg>
