<svg width="30" height="40" viewBox="0 0 30 40" fill="none" xmlns="http://www.w3.org/2000/svg">
<path d="M15.2769 14.92C17.9562 14.92 20.1763 12.7765 20.1763 10.0206C20.1763 7.34126 17.9562 5.12121 15.2769 5.12121C12.521 5.12121 10.3775 7.34126 10.3775 10.0206C10.3775 12.7765 12.521 14.92 15.2769 14.92ZM15.2769 7.57092C16.5783 7.57092 17.7266 8.71922 17.7266 10.0206C17.7266 11.3986 16.5783 12.4703 15.2769 12.4703C13.8989 12.4703 12.8272 11.3986 12.8272 10.0206C12.8272 8.71922 13.8989 7.57092 15.2769 7.57092ZM15.2769 17.3697C10.5306 17.3697 6.7029 21.274 6.7029 25.9437C6.7029 30.69 10.5306 34.5177 15.2769 34.5177C19.9466 34.5177 23.8509 30.69 23.8509 25.9437C23.8509 21.274 19.9466 17.3697 15.2769 17.3697ZM15.2769 32.068C11.832 32.068 9.15261 29.3886 9.15261 25.9437C9.15261 22.5754 11.832 19.8195 15.2769 19.8195C18.6452 19.8195 21.4011 22.5754 21.4011 25.9437C21.4011 29.3886 18.6452 32.068 15.2769 32.068ZM25.0757 0.221798H5.47805C2.72213 0.221798 0.578636 2.44185 0.578636 5.12121V34.5177C0.578636 37.2736 2.72213 39.4171 5.47805 39.4171H25.0757C27.7551 39.4171 29.9751 37.2736 29.9751 34.5177V5.12121C29.9751 2.44185 27.7551 0.221798 25.0757 0.221798ZM27.5254 34.5177C27.5254 35.8957 26.3771 36.9674 25.0757 36.9674H5.47805C4.10009 36.9674 3.02834 35.8957 3.02834 34.5177V5.12121C3.02834 3.81981 4.10009 2.67151 5.47805 2.67151H25.0757C26.3771 2.67151 27.5254 3.81981 27.5254 5.12121V34.5177ZM15.2769 24.1064C14.2051 24.1064 13.4396 24.9485 13.4396 25.9437C13.4396 27.0155 14.2051 27.781 15.2769 27.781C16.2721 27.781 17.1142 27.0155 17.1142 25.9437C17.1142 24.9485 16.2721 24.1064 15.2769 24.1064Z" fill="#282828"/>
</svg>
