<svg width="42" height="29" viewBox="0 0 42 29" fill="none" xmlns="http://www.w3.org/2000/svg">
<path d="M40.0951 3.55241C39.3847 3.19723 38.4612 3.19723 37.7509 3.69448L30.4342 8.80905C29.937 9.16422 29.7949 9.87458 30.1501 10.4429C30.5053 10.9401 31.2156 11.0822 31.7839 10.656L39.1006 5.61244V23.7265L31.7839 18.612C31.2156 18.2568 30.5053 18.3989 30.1501 18.8961C29.7949 19.4644 29.937 20.1747 30.4342 20.5299L37.7509 25.6445C38.1771 25.9286 38.6033 25.9997 39.0295 25.9997C39.4557 25.9997 39.8109 25.9286 40.0951 25.7866C40.8765 25.3603 41.3737 24.5789 41.3737 23.7265V5.61244C41.3737 4.76002 40.8765 3.97863 40.0951 3.55241ZM23.1886 0.995131H5.00348C2.4462 0.995131 0.457207 3.05516 0.457207 5.54141V23.7265C0.457207 26.2838 2.4462 28.2728 5.00348 28.2728H23.1886C25.6748 28.2728 27.7349 26.2838 27.7349 23.7265V5.54141C27.7349 3.05516 25.6748 0.995131 23.1886 0.995131ZM25.4617 23.7265C25.4617 25.0052 24.3962 25.9997 23.1886 25.9997H5.00348C3.72484 25.9997 2.73035 25.0052 2.73035 23.7265V5.54141C2.73035 4.3338 3.72484 3.26827 5.00348 3.26827H23.1886C24.3962 3.26827 25.4617 4.3338 25.4617 5.54141V23.7265Z" fill="#282828"/>
</svg>
