<svg width="28" height="19" viewBox="0 0 28 19" fill="none" xmlns="http://www.w3.org/2000/svg">
<path d="M14.4754 6.5625C12.7879 6.5625 11.4754 7.875 11.4754 9.5625C11.4754 11.2031 12.7879 12.5625 14.4754 12.5625C16.116 12.5625 17.4754 11.2031 17.4754 9.5625C17.4754 7.875 16.116 6.5625 14.4754 6.5625ZM14.4754 11.0625C13.6316 11.0625 12.9754 10.3594 12.9754 9.5625C12.9754 8.71875 13.6316 8.0625 14.4754 8.0625C15.2723 8.0625 15.9754 8.71875 15.9754 9.5625C15.9754 10.3594 15.2723 11.0625 14.4754 11.0625ZM2.4754 9.5625C2.4754 6.60938 3.6004 3.89062 5.6629 1.82812C5.94415 1.54688 5.94415 1.03125 5.6629 0.75C5.33477 0.46875 4.86602 0.46875 4.58477 0.75C2.24102 3.09375 0.975398 6.23438 0.975398 9.5625C0.975398 12.8438 2.24102 15.9844 4.58477 18.3281C4.7254 18.4688 4.9129 18.5156 5.1004 18.5156C5.2879 18.5156 5.4754 18.4688 5.6629 18.3281C5.94415 18.0469 5.94415 17.5312 5.6629 17.25C3.6004 15.1875 2.4754 12.4688 2.4754 9.5625ZM24.3191 0.75C24.0379 0.46875 23.5691 0.46875 23.241 0.75C22.9598 1.03125 22.9598 1.54688 23.241 1.82812C25.3035 3.89062 26.4754 6.60938 26.4754 9.5625C26.4754 12.4688 25.3035 15.1875 23.241 17.25C22.9598 17.5312 22.9598 18.0469 23.241 18.3281C23.4285 18.4688 23.616 18.5156 23.8035 18.5156C23.991 18.5156 24.1785 18.4688 24.3191 18.3281C26.6629 15.9844 27.9754 12.8438 27.9754 9.5625C27.9754 6.23438 26.6629 3.09375 24.3191 0.75ZM8.80352 3.75C8.52227 3.46875 8.00665 3.46875 7.7254 3.79688C6.27227 5.34375 5.4754 7.40625 5.4754 9.5625C5.4754 11.6719 6.27227 13.7344 7.7254 15.3281C7.9129 15.4688 8.1004 15.5625 8.2879 15.5625C8.4754 15.5625 8.6629 15.4688 8.80352 15.3281C9.08477 15.0469 9.13165 14.5781 8.8504 14.2969C7.63165 12.9844 6.9754 11.2969 6.9754 9.5625C6.9754 7.78125 7.63165 6.09375 8.8504 4.82812C9.13165 4.5 9.08477 4.03125 8.80352 3.75ZM21.1785 3.79688C20.8973 3.46875 20.3816 3.46875 20.1004 3.75C19.8191 4.03125 19.7723 4.5 20.0535 4.82812C21.2723 6.09375 21.9754 7.78125 21.9754 9.5625C21.9754 11.2969 21.2723 12.9844 20.0535 14.2969C19.7723 14.5781 19.8191 15.0469 20.1004 15.3281C20.241 15.4688 20.4285 15.5625 20.616 15.5625C20.8035 15.5625 20.991 15.4688 21.1785 15.3281C22.6316 13.7344 23.4754 11.6719 23.4754 9.5625C23.4754 7.40625 22.6316 5.34375 21.1785 3.79688Z" fill="#282828"/>
</svg>
