<svg width="60" height="88" viewBox="0 0 60 88" fill="none" xmlns="http://www.w3.org/2000/svg">
<ellipse cx="30.1387" cy="55.1096" rx="28.6997" ry="28.0847" fill="#ABE3F6"/>
<path d="M31.0351 44.2071C30.6796 44.2071 30.3635 44.0899 30.087 43.9727C30.1265 44.129 30.166 44.2853 30.1265 44.4807C30.087 45.4185 29.297 46.1218 28.349 46.1218C28.2305 46.1218 28.112 46.0827 27.9935 46.0827C27.4405 47.0987 26.3344 47.763 25.0704 47.6848C23.7274 47.6457 22.5819 46.747 22.1868 45.5747C21.7128 45.7701 21.1993 45.8483 20.6463 45.8092C18.4738 45.7311 16.7752 43.8945 16.8542 41.7454C16.9332 39.5963 18.7503 37.916 20.9623 37.9942C21.3573 37.9942 21.7128 38.0723 22.0288 38.1896C22.6609 37.4862 23.6089 37.0564 24.6359 37.0955C26.0184 37.1345 27.2035 38.0333 27.638 39.2446C28.033 39.0492 28.507 38.932 28.981 38.932C29.7315 38.9711 30.403 39.3227 30.8771 39.8307C30.9956 39.8307 31.0746 39.8307 31.1931 39.8307C32.4176 39.8698 33.3656 40.8857 33.3261 42.0971C33.2866 43.3084 32.2596 44.2462 31.0351 44.2071Z" fill="#C5F0FF"/>
<path d="M54.537 59.6068C53.9521 59.6068 53.4322 59.4192 52.9772 59.2316C52.9772 61.7956 50.2994 65.3305 44.7235 65.1727C42.5138 65.1101 40.6291 63.6717 39.9792 61.7956C39.1993 62.1083 38.3545 62.2334 37.4446 62.1708C33.8701 62.0458 31.0755 59.1065 31.2055 55.6669C31.3355 52.2273 34.3251 49.5382 37.9645 49.6633C38.6144 49.6633 39.1993 49.7883 39.7192 49.9759C40.7591 48.8503 42.3189 48.1623 44.0086 48.2249C46.2833 48.2874 48.233 49.7258 48.9479 51.6645C51.8396 48.8267 58.3064 50.644 58.3064 56.2297C58.2415 58.1684 56.5517 59.6693 54.537 59.6068Z" fill="#C5F0FF"/>
<mask id="mask0" mask-type="alpha" maskUnits="userSpaceOnUse" x="1" y="0" width="58" height="84">
<path d="M58.8384 54.8601C58.8384 70.5087 45.9891 83.1944 30.1387 83.1944C14.2883 83.1944 1.43896 70.5087 1.43896 54.8601C1.43896 41.9303 10.2112 31.0233 22.2004 27.6236C24.7215 26.9087 15.7888 4.52144 28.3068 0C56.0905 0 46.451 30.2582 51.711 36.1715C56.1481 41.1597 58.8384 47.6997 58.8384 54.8601Z" fill="#CAF2FF"/>
</mask>
<g mask="url(#mask0)">
<path d="M29.5417 1.75085L24.0628 17.5017L24.1048 17.5369L34.7405 12.3953L29.5417 1.75085Z" fill="#FFDC00"/>
<path d="M45.3768 7.25331L45.3718 7.19557L29.5422 1.75049L34.7411 12.3949L45.3768 7.25331Z" fill="#FFBC00"/>
<path d="M24.1049 17.5359L46.2872 36.0373L34.7406 12.3943L24.1049 17.5359Z" fill="#FFBC00"/>
<path d="M34.7406 12.3949L46.2872 36.0379L45.3763 7.25331L34.7406 12.3949Z" fill="#FF8D0D"/>
<path d="M45.3762 7.2543L33.9258 17.9632L24.1047 17.5375" stroke="white" stroke-miterlimit="10" stroke-linecap="round" stroke-linejoin="round"/>
<path d="M33.9259 17.9625L5.9972 81.6382" stroke="white" stroke-miterlimit="10" stroke-linecap="round" stroke-linejoin="round"/>
<path d="M46.5447 35.862L48.7064 35.2786L47.9536 33.8987L46.3431 35.5594L45.9753 35.814L45.985 35.8131L43.8452 36.7631L44.9014 37.9326L46.1954 36.1053L46.5447 35.862Z" fill="#FFDC00"/>
<path d="M46.1526 36.061C46.1526 36.061 47.222 38.8486 50.2906 45.0321C51.3657 47.2084 56.8205 57.9956 57.0989 64.0313C57.3773 70.0669 56.8443 71.2277 56.1069 72.8424L58.5585 73.0194C58.5585 73.0194 62.1437 66.0214 52.7486 47.5355C52.7486 47.5355 49.627 41.754 46.1526 36.061Z" fill="#5CD675"/>
<path d="M46.0936 36.0563C46.0936 36.0563 46.666 39.2938 48.3266 45.9862C48.9103 48.3404 50.7211 57.2208 50.4053 63.259C50.2213 66.7652 48.0142 70.5422 46.4613 71.7422L48.3491 72.1616C48.3491 72.1616 51.2131 69.7824 51.9863 63.5109C52.4147 60.0129 52.282 56.0007 50.4226 48.8115C50.4217 48.8019 48.2664 41.9096 46.0936 36.0563Z" fill="#36C6D1"/>
<path d="M46.0935 36.0561C46.0935 36.0561 48.1781 38.863 50.0525 41.1547C51.2846 42.6679 57.0352 48.3106 59.1001 53.3685C60.3606 56.4499 60.4456 58.3332 59.7873 62.1031L58.3433 61.5195C58.3433 61.5195 61.7471 55.1285 52.3949 45.0254C52.3932 45.0061 45.9527 37.3577 46.0935 36.0561Z" fill="#FFDC00"/>
</g>
<path d="M15.0404 20.1568L10.2585 25.2175L14.6049 24.6831L15.0404 20.1568Z" fill="#FF7F00"/>
<path d="M6.71674 28.9809L3.41754 32.7181L13.7284 33.9867L14.225 28.7275L6.71674 28.9809Z" fill="#36C6D1"/>
<path d="M14.6055 24.6828L10.2591 25.2172L6.71687 28.9812L14.2252 28.7278L14.6055 24.6828Z" fill="#FFDC00"/>
<path d="M13.7281 33.9876L23.7166 34.6764L21.5572 30.3502L14.2247 28.7284L13.7281 33.9876Z" fill="#13B2C9"/>
<path d="M18.783 26.0083L15.0402 20.1555L14.6048 24.6817L18.783 26.0083Z" fill="#F06400"/>
<path d="M14.6046 24.6815L14.2242 28.7266L21.5568 30.3484L18.7828 26.0082L14.6046 24.6815Z" fill="#FFBC00"/>
<path d="M13.5013 37.3668C13.5013 37.3668 12.4801 49.0367 20.816 63.2674L34.0411 83.8093" stroke="white" stroke-miterlimit="10"/>
<path d="M13.811 39.534L15.4561 40.0182L15.5395 38.8138L13.7961 39.2528L13.4665 39.2704L11.6817 39.0315L11.8951 40.2283L13.4814 39.5517L13.811 39.534Z" fill="#F06400"/>
<path d="M15.2191 48.5667L16.9198 48.8433L16.8334 47.6314L15.1714 48.2955L14.8443 48.3601L13.0466 48.3513L13.4165 49.5121L14.892 48.6312L15.2191 48.5667Z" fill="#13B2C9"/>
<path d="M18.7285 58.9418L20.3996 58.5011L19.8321 57.4367L18.5824 58.7008L18.2956 58.8959L18.3065 58.8925L16.6613 59.6111L17.4568 60.5223L18.4602 59.1193L18.7285 58.9418Z" fill="#F06400"/>
<path d="M22.7832 66.2716L24.4543 65.831L23.8868 64.7665L22.6371 66.0306L22.3503 66.2257L22.3612 66.2224L20.716 66.9409L21.5114 67.8522L22.5149 66.4492L22.7832 66.2716Z" fill="#13B2C9"/>
<path d="M27.9475 74.0937L29.6186 73.653L29.0511 72.5885L27.8014 73.8527L27.5146 74.0477L27.5255 74.0444L25.8803 74.7629L26.6758 75.6742L27.6792 74.2712L27.9475 74.0937Z" fill="#13B2C9"/>
<path d="M6.7168 28.981L13.5018 37.3657L21.5576 30.3494" stroke="white" stroke-miterlimit="10" stroke-linecap="round" stroke-linejoin="round"/>
</svg>
