<svg width="164" height="120" viewBox="0 0 164 120" fill="none" xmlns="http://www.w3.org/2000/svg">
<path d="M4 77.8889V67.1556L28.909 32H43.9648V66.3778H50.4286V77.8889H43.9648V88H30.4856V77.8889H4ZM31.4315 46.6222L18.1887 66.3778H31.4315V46.6222Z" fill="#E2E2E2"/>
<path d="M113.571 77.8889V67.1556L138.48 32H153.536V66.3778H160V77.8889H153.536V88H140.057V77.8889H113.571ZM141.003 46.6222L127.76 66.3778H141.003V46.6222Z" fill="#E2E2E2"/>
<ellipse cx="81.9999" cy="60.0001" rx="24.1429" ry="24.2667" fill="#E44848"/>
<path d="M75.9644 53.9333L88.0358 66.0667" stroke="white" stroke-width="4.33333" stroke-linecap="round" stroke-linejoin="round"/>
<path d="M88.0358 53.9333L75.9643 66.0667" stroke="white" stroke-width="4.33333" stroke-linecap="round" stroke-linejoin="round"/>
<g opacity="0.8">
<path d="M108 34L115.959 42" stroke="#FEE5EA" stroke-width="3" stroke-linecap="round" stroke-linejoin="round"/>
<path d="M115.959 34L108 42" stroke="#FEE5EA" stroke-width="3" stroke-linecap="round" stroke-linejoin="round"/>
</g>
<path d="M70 93L73.9796 97" stroke="#FEE5EA" stroke-width="2" stroke-linecap="round" stroke-linejoin="round"/>
<path d="M73.9796 93L70 97" stroke="#FEE5EA" stroke-width="2" stroke-linecap="round" stroke-linejoin="round"/>
<path d="M58 26L61.9796 30" stroke="#FEE5EA" stroke-width="2" stroke-linecap="round" stroke-linejoin="round"/>
<path d="M61.9796 26L58 30" stroke="#FEE5EA" stroke-width="2" stroke-linecap="round" stroke-linejoin="round"/>
</svg>
