<svg xmlns="http://www.w3.org/2000/svg" xmlns:xlink="http://www.w3.org/1999/xlink" version="1.1" id="Layer_1" x="0px" y="0px" viewBox="0 0 414 102" style="enable-background:new 0 0 414 102;" xml:space="preserve"><style type="text/css">
	.st0{fill:#180B3D;}
	.st1{fill-rule:evenodd;clip-rule:evenodd;fill:#22B24B;}
</style><path class="st0" d="M125.5,30c3.7,0,6.9,0.6,9.7,1.9c2.8,1.2,4.9,3,6.4,5.3c1.5,2.3,2.2,5,2.2,8.1c0,3.1-0.7,5.8-2.2,8.1  c-1.5,2.3-3.6,4-6.4,5.3c-2.7,1.2-5.9,1.8-9.7,1.8H117V72h-9.7V30H125.5z M125,52.5c2.9,0,5.1-0.6,6.7-1.9c1.5-1.3,2.3-3.1,2.3-5.4  c0-2.4-0.8-4.2-2.3-5.4c-1.5-1.3-3.7-1.9-6.7-1.9H117v14.6H125z"/><path class="st0" d="M156,44c1.1-1.6,2.6-2.7,4.5-3.5c1.9-0.8,4.1-1.2,6.6-1.2v8.6c-1-0.1-1.7-0.1-2.1-0.1c-2.7,0-4.8,0.8-6.3,2.3  c-1.5,1.5-2.3,3.7-2.3,6.7V72H147V39.7h8.9V44z"/><path class="st0" d="M184.7,72.5c-3.4,0-6.5-0.7-9.2-2.1c-2.7-1.4-4.8-3.4-6.3-5.9c-1.5-2.5-2.3-5.4-2.3-8.6c0-3.2,0.8-6.1,2.3-8.6  c1.5-2.5,3.6-4.5,6.3-5.9c2.7-1.4,5.8-2.2,9.2-2.2c3.4,0,6.4,0.7,9.1,2.2c2.7,1.4,4.8,3.4,6.3,5.9c1.5,2.5,2.3,5.4,2.3,8.6  c0,3.2-0.8,6.1-2.3,8.6c-1.5,2.5-3.6,4.5-6.3,5.9C191.1,71.8,188.1,72.5,184.7,72.5z M184.7,64.8c2.4,0,4.4-0.8,5.9-2.4  c1.6-1.6,2.3-3.8,2.3-6.5c0-2.7-0.8-4.9-2.3-6.5c-1.5-1.6-3.5-2.5-5.9-2.5c-2.4,0-4.4,0.8-5.9,2.5c-1.6,1.6-2.3,3.8-2.3,6.5  c0,2.7,0.8,4.9,2.3,6.5C180.3,64,182.3,64.8,184.7,64.8z"/><path class="st0" d="M244.8,30v42h-8l-20.9-25.5V72h-9.6V30h8l20.9,25.5V30H244.8z"/><path class="st0" d="M264.1,39.2c5,0,8.8,1.2,11.5,3.6c2.7,2.4,4,5.9,4,10.7V72h-8.8v-4c-1.8,3-5,4.5-9.8,4.5  c-2.5,0-4.6-0.4-6.5-1.3c-1.8-0.8-3.2-2-4.1-3.5c-1-1.5-1.4-3.2-1.4-5c0-3,1.1-5.4,3.4-7.1c2.3-1.7,5.8-2.6,10.5-2.6h7.4  c0-2-0.6-3.6-1.9-4.7c-1.2-1.1-3.1-1.7-5.6-1.7c-1.7,0-3.4,0.3-5.1,0.8c-1.6,0.5-3,1.2-4.2,2.2l-3.4-6.5c1.8-1.2,3.9-2.2,6.3-2.9  C258.9,39.6,261.5,39.2,264.1,39.2z M263.4,66.2c1.6,0,3-0.4,4.3-1.1c1.2-0.8,2.1-1.9,2.6-3.3v-3.3h-6.4c-3.8,0-5.8,1.3-5.8,3.8  c0,1.2,0.5,2.2,1.4,2.9C260.4,65.8,261.7,66.2,263.4,66.2z"/><path class="st0" d="M305.9,70.4c-0.9,0.7-2.1,1.2-3.4,1.6c-1.3,0.3-2.7,0.5-4.2,0.5c-3.8,0-6.8-1-8.9-2.9c-2.1-2-3.1-4.8-3.1-8.6  V47.6h-5v-7.2h5v-7.9h9.4v7.9h8v7.2h-8v13.1c0,1.4,0.3,2.4,1,3.2c0.7,0.7,1.7,1.1,3,1.1c1.5,0,2.7-0.4,3.8-1.2L305.9,70.4z"/><path class="st0" d="M340.7,39.7V72h-8.9v-3.8c-1.2,1.4-2.7,2.5-4.4,3.2c-1.7,0.7-3.6,1.1-5.6,1.1c-4.2,0-7.6-1.2-10.1-3.7  c-2.5-2.4-3.7-6.1-3.7-10.9V39.7h9.4v16.9c0,5.2,2.2,7.8,6.5,7.8c2.2,0,4-0.7,5.4-2.2c1.4-1.5,2-3.7,2-6.5v-16H340.7z"/><path class="st0" d="M355.3,44c1.1-1.6,2.6-2.7,4.5-3.5c1.9-0.8,4.1-1.2,6.6-1.2v8.6c-1-0.1-1.7-0.1-2.1-0.1c-2.7,0-4.8,0.8-6.3,2.3  c-1.5,1.5-2.3,3.7-2.3,6.7V72h-9.4V39.7h8.9V44z"/><path class="st0" d="M400.2,56c0,0.1-0.1,1-0.2,2.5h-24.4c0.4,2,1.5,3.6,3.1,4.7c1.6,1.2,3.7,1.7,6.1,1.7c1.7,0,3.2-0.2,4.4-0.7  c1.3-0.5,2.5-1.3,3.7-2.4l5,5.4c-3,3.5-7.5,5.2-13.3,5.2c-3.6,0-6.9-0.7-9.7-2.1c-2.8-1.4-5-3.4-6.5-5.9c-1.5-2.5-2.3-5.4-2.3-8.6  c0-3.2,0.7-6,2.2-8.5c1.5-2.6,3.6-4.5,6.2-5.9c2.6-1.4,5.6-2.2,8.8-2.2c3.2,0,6,0.7,8.6,2c2.6,1.4,4.6,3.3,6,5.9  C399.5,49.7,400.2,52.6,400.2,56z M383.5,46.3c-2.1,0-3.9,0.6-5.3,1.8c-1.4,1.2-2.3,2.8-2.6,4.9h15.9c-0.3-2-1.2-3.7-2.6-4.9  C387.3,46.9,385.6,46.3,383.5,46.3z"/><path class="st1" d="M54,6.6c-1.4-0.8-3.2-0.8-4.6,0c-10.1,5.9-17,16.8-17,29.4c0,1.8,0.1,3.5,0.4,5.3c-7-2.4-14.5-1.5-20.7,2  c-1.4,0.8-2.3,2.3-2.3,4c0,8.7,4.5,17.2,12.6,21.8c4,2.3,8.3,3.4,12.6,3.4c-0.6,1.8-1,3.8-1,5.9c0,9.8,7.9,17.7,17.7,17.7  c9.8,0,17.7-7.9,17.7-17.7c0-2.1-0.4-4.1-1-5.9c4-0.1,8.1-1.2,11.8-3.4c8.1-4.7,12.6-13.1,12.6-21.8c0-1.6-0.9-3.2-2.3-4  C84.6,39.9,77.4,39,70.6,41c0.2-1.6,0.4-3.3,0.4-5C71,23.4,64.2,12.5,54,6.6z M41.7,36c0-8.2,3.9-15.4,10.1-19.9  c6.1,4.5,10.1,11.7,10.1,19.9c0,8.2-3.9,15.4-10.1,19.9C45.6,51.4,41.7,44.2,41.7,36z M69.9,51.3c4.3-2.5,9.2-2.7,13.5-1.2  c-0.8,4.5-3.5,8.6-7.8,11.1c-4.3,2.5-9.2,2.7-13.5,1.2C62.9,57.8,65.6,53.7,69.9,51.3z M19.4,50.1c4.3-1.6,9.2-1.3,13.5,1.2  c4.3,2.5,7,6.6,7.8,11.1c-4.3,1.6-9.2,1.3-13.5-1.2C22.9,58.7,20.2,54.6,19.4,50.1z M43.3,78.4c0-4.7,3.8-8.5,8.5-8.5  s8.5,3.8,8.5,8.5c0,4.7-3.8,8.5-8.5,8.5S43.3,83.1,43.3,78.4z"/></svg>