<svg class="mt-32" viewBox="0 0 42 40" fill="none" xmlns="http://www.w3.org/2000/svg"><path fill-rule="evenodd" clip-rule="evenodd" d="M13.6972 37.1485C9.68397 36.1196 5.87073 33.9647 3.64269 30.3677C1.38104 26.7162 1.04495 22.1613 2.07792 18.054C3.00411 14.3753 4.90072 11.423 7.38488 9.05148C14.9675 6.30638 23.3747 4.29616 30.8586 8.06297C38.8705 12.0953 41.9248 22.3894 37.2317 30.06C32.4442 37.8847 21.9784 39.2715 13.6972 37.1485M36.2487 9.72212C29.2778 2.76212 19.5313 3.60467 10.7592 6.38638C14.7507 3.76638 19.5569 2.13403 24.2095 1.13531C24.8328 1.00169 24.7073 -0.0719226 24.0568 0.00382209C17.6798 0.748077 11.0953 3.40638 6.42221 7.93063C5.17269 8.42084 3.95677 8.93148 2.79191 9.44467C2.13631 9.73361 2.60897 10.88 3.28457 10.6136C3.65045 10.4698 4.02016 10.3251 4.39157 10.1804C3.18885 11.7051 2.18268 13.3936 1.43603 15.2489C-2.13683 24.1336 1.03612 34.0089 10.0751 37.8451C18.3737 41.3672 30.304 40.8302 36.6979 33.8902C42.9864 27.0642 42.8541 16.3179 36.2487 9.72212" fill="#FFD200"/><path d="M21.5218 30.3793L21.613 30.3674C21.8895 30.3059 22.0277 30.1216 22.0277 29.8144C21.8434 26.8346 21.7743 23.847 21.8204 20.8518C21.8665 17.8566 22.1967 14.8538 22.8111 11.8432C22.8111 11.6589 22.7573 11.4592 22.6498 11.2442C22.5423 11.0291 22.3964 10.8294 22.2121 10.6451C22.0277 10.4608 21.8127 10.3072 21.5669 10.1843C21.3212 10.0614 21.0908 10 20.8757 10C20.6914 10 20.5071 10.2611 20.3228 10.7834C20.1385 11.3056 19.9695 11.8893 19.8159 12.5344C18.9865 17.2653 18.7868 22.1037 19.2169 27.0496C19.2169 27.2646 19.3397 27.7024 19.5855 28.3629C19.8313 29.0234 20.2306 29.584 20.7836 30.0448C20.9065 30.137 21.037 30.2214 21.1753 30.2982C21.3135 30.375 21.4594 30.3981 21.613 30.3674L21.5218 30.3793Z" fill="#0D0C23"/></svg>