<svg class="mt-32" viewBox="0 0 46 45" fill="none" xmlns="http://www.w3.org/2000/svg"><path fill-rule="evenodd" clip-rule="evenodd" d="M27.7578 39.832C31.8565 39.2282 35.8741 37.4838 38.4658 34.1395C41.0967 30.7444 41.907 26.2496 41.3089 22.0569C40.7722 18.3015 39.1945 15.167 36.9718 12.5488C29.7176 9.02598 21.5666 6.1478 13.73 9.11152C5.34053 12.2841 1.22722 22.2025 5.09293 30.3217C9.03647 38.6041 19.3001 41.0775 27.7578 39.832ZM8.19615 10.1981C15.8562 4.00507 25.4612 5.862 33.8946 9.54561C30.1988 6.52264 25.5895 4.39675 21.0667 2.91707C20.4608 2.71902 20.6979 1.6644 21.3369 1.80774C27.6011 3.21463 33.8718 6.54679 38.0464 11.5348C39.2379 12.153 40.3938 12.788 41.4986 13.4201C42.1204 13.776 41.5306 14.8667 40.8865 14.5312C40.5376 14.3499 40.1851 14.1673 39.8308 13.9846C40.8676 15.6267 41.6918 17.4111 42.2405 19.3343C44.8653 28.5439 40.6777 38.0334 31.2873 40.9035C22.6661 43.5387 10.8573 41.7573 5.22363 34.1869C-0.317018 26.7408 0.937631 16.0671 8.19615 10.1981Z" fill="#FFD200"/><path d="M16.5808 30.0646L16.7077 30.0531C17.6291 29.9609 18.6657 29.8304 19.8174 29.6614C20.9692 29.4924 22.144 29.3158 23.3418 29.1315C24.5396 28.9472 25.7298 28.7628 26.9122 28.5785C28.0947 28.3942 29.1774 28.2252 30.1602 28.0716C30.283 28.0716 30.4443 27.9718 30.6439 27.7721C30.8436 27.5724 31.0202 27.3497 31.1737 27.104C31.3273 26.8582 31.4271 26.6201 31.4732 26.3897C31.5193 26.1593 31.4502 25.998 31.2659 25.9059C31.1123 25.8444 30.8128 25.7676 30.3675 25.6755C29.9222 25.5833 29.5306 25.5526 29.1927 25.5833C28.517 25.6448 27.7569 25.7292 26.9122 25.8368C26.0676 25.9443 25.2076 26.0595 24.3323 26.1824C23.457 26.3052 22.6123 26.4204 21.7984 26.528C20.9845 26.6355 20.3012 26.72 19.7483 26.7814C20.1783 26.2284 20.6544 25.6064 21.1765 24.9152C21.6986 24.224 22.2054 23.502 22.6968 22.7494C23.1882 21.9968 23.6336 21.2518 24.0328 20.5145C24.4321 19.7772 24.7546 19.1014 25.0003 18.487C25.4303 17.3504 25.4457 16.1369 25.0464 14.8467C24.8621 14.478 24.578 14.1401 24.1941 13.8329C23.8102 13.5257 23.3264 13.2953 22.7429 13.1417C21.8522 13.0188 20.9692 13.0188 20.0938 13.1417C19.2185 13.2646 18.3892 13.4566 17.606 13.7177C16.8229 13.9788 16.1318 14.2937 15.5329 14.6624C14.934 15.031 14.4963 15.3843 14.2199 15.7222C14.1585 15.8758 14.097 16.0755 14.0356 16.3212C13.9742 16.567 13.9588 16.7667 13.9895 16.9203C13.9895 16.9817 14.0356 17.0739 14.1277 17.1968C14.2199 17.3196 14.3504 17.4348 14.5193 17.5424C14.6883 17.6499 14.8956 17.719 15.1413 17.7497C15.387 17.7804 15.6941 17.7036 16.0627 17.5193C16.3391 17.3964 16.6616 17.2505 17.0302 17.0816C17.3987 16.9126 17.8057 16.7513 18.251 16.5977C18.6964 16.4441 19.1494 16.3059 19.6101 16.183C20.0708 16.0601 20.5161 15.9833 20.9461 15.9526C21.2533 15.9219 21.522 15.9142 21.7524 15.9296C21.9827 15.9449 22.1747 16.014 22.3282 16.1369C22.4204 16.1984 22.4818 16.3443 22.5125 16.5747C22.5432 16.8051 22.5125 17.0432 22.4204 17.2889C21.714 19.0092 20.7388 20.7372 19.4949 22.4729C18.251 24.2086 16.9841 25.7984 15.6941 27.2422C15.3563 27.5801 15.172 27.8259 15.1413 27.9795C15.1106 28.1331 15.0952 28.2406 15.0952 28.302C15.1566 28.7321 15.3332 29.1468 15.625 29.5462C15.9168 29.9456 16.2777 30.1145 16.7077 30.0531L16.5808 30.0646Z" fill="#0D0C23"/></svg>